<?xml version="1.0" standalone="no"?>
<!DOCTYPE svg PUBLIC "-//W3C//DTD SVG 20010904//EN"
 "http://www.w3.org/TR/2001/REC-SVG-20010904/DTD/svg10.dtd">
<svg version="1.0" xmlns="http://www.w3.org/2000/svg"
 width="713.000000pt" height="500.000000pt" viewBox="0 0 713.000000 500.000000"
 preserveAspectRatio="xMidYMid meet">

<g transform="translate(0.000000,500.000000) scale(0.100000,-0.100000)"
fill="#000000" stroke="none">
<path d="M0 3456 c0 -1080 3 -1547 11 -1551 5 -4 18 0 28 9 26 24 57 20 80
-10 25 -32 27 -62 5 -93 -15 -20 -22 -22 -61 -16 l-46 7 7 -69 c9 -87 15 -106
31 -99 7 2 45 8 85 12 l72 7 -7 -46 c-6 -41 -5 -47 19 -62 32 -21 81 -12 102
19 14 23 10 56 -7 56 -11 0 -12 37 -1 44 5 3 78 15 163 26 85 12 156 24 159
26 2 3 -1 14 -8 24 -20 32 -14 67 14 89 32 25 62 27 93 5 20 -15 23 -22 17
-60 l-6 -44 33 1 c17 0 56 4 84 8 61 9 59 12 69 -97 l7 -72 -49 2 c-44 3 -49
0 -61 -24 -17 -34 -7 -75 23 -94 21 -14 26 -14 53 2 21 12 34 15 41 8 9 -9 33
-155 26 -161 -1 -1 -36 -7 -76 -13 -41 -6 -78 -14 -83 -19 -4 -4 0 -22 10 -38
16 -29 16 -32 0 -56 -22 -34 -70 -44 -104 -22 -23 15 -25 21 -19 62 l6 45 -68
-6 c-106 -11 -102 -9 -95 -74 11 -112 13 -107 -31 -104 -48 4 -76 -19 -76 -63
0 -56 47 -81 94 -50 33 22 42 6 51 -84 l7 -74 77 7 c42 4 80 11 85 16 5 5 1
18 -8 31 -22 32 -20 52 7 77 30 28 80 29 108 1 17 -17 19 -28 14 -61 -7 -40
-7 -40 21 -35 16 3 53 9 82 12 58 8 57 5 43 105 -10 63 0 85 29 70 10 -6 25
-10 34 -10 45 0 63 83 26 120 -24 24 -34 25 -71 3 -25 -15 -31 -16 -39 -4 -11
18 -24 147 -16 159 3 6 38 13 77 17 71 7 95 23 70 48 -19 19 -13 65 11 81 57
40 125 5 115 -59 -3 -19 -2 -37 2 -39 4 -3 72 4 151 15 190 27 194 26 175 -38
-9 -27 25 -63 59 -63 29 0 76 36 76 57 0 9 -7 24 -16 34 -27 30 -11 46 53 53
32 4 70 9 84 12 27 5 27 5 34 -76 8 -87 21 -106 54 -76 25 23 46 20 70 -10 27
-34 27 -78 1 -104 -23 -23 -33 -24 -62 -9 -33 18 -39 -1 -28 -81 6 -41 12 -76
15 -78 2 -2 36 1 77 6 87 12 107 2 87 -41 -10 -23 -9 -30 6 -47 24 -26 79 -26
105 0 24 24 25 38 3 69 -15 22 -15 25 1 37 9 6 48 15 87 19 38 4 69 10 69 14
0 14 -21 137 -25 150 -4 11 -10 10 -30 -3 -13 -9 -33 -16 -44 -16 -25 0 -61
45 -61 77 0 30 45 77 68 70 46 -13 47 -12 47 18 -1 17 -4 56 -8 87 l-7 56 68
7 c118 12 107 15 104 -34 -1 -24 3 -49 9 -57 17 -21 83 -18 102 4 19 21 22 57
7 67 -5 3 -10 15 -10 25 0 20 13 24 109 36 l54 6 -7 52 c-3 28 -6 60 -6 71 0
11 -4 26 -9 34 -7 11 -13 11 -32 -3 -31 -21 -55 -20 -79 4 -43 43 -9 141 43
125 42 -12 52 -11 50 10 -1 11 -5 50 -9 88 -6 66 -6 67 17 68 13 0 50 4 82 8
68 8 84 -2 66 -43 -17 -37 10 -66 62 -66 30 0 42 6 55 26 16 24 16 27 -1 56
-17 30 -17 32 0 45 11 7 28 13 39 13 12 0 44 3 72 6 l51 6 7 -74 c9 -94 16
-106 47 -84 32 22 54 20 79 -6 47 -51 12 -126 -54 -114 -19 4 -37 2 -40 -3 -4
-5 -2 -42 4 -82 8 -55 8 -74 -2 -80 -20 -13 -149 -22 -159 -12 -6 6 -5 20 3
38 11 25 10 29 -16 52 -31 27 -66 25 -98 -4 -22 -20 -23 -42 -2 -72 10 -13 13
-26 7 -32 -4 -4 -43 -14 -86 -20 l-78 -12 7 -61 c4 -33 11 -72 16 -85 8 -22 9
-22 33 -7 33 22 58 20 80 -4 22 -24 24 -82 4 -106 -10 -12 -24 -15 -57 -10
l-45 6 8 -83 c4 -45 8 -83 9 -84 1 -1 34 3 74 9 93 13 105 9 96 -37 -12 -63
49 -98 104 -59 24 17 28 44 10 73 -20 33 -4 49 59 56 100 11 96 7 88 88 -4 40
-11 76 -16 82 -6 6 -21 2 -40 -9 -30 -18 -32 -18 -58 1 -18 14 -27 31 -29 57
-5 53 20 78 72 74 36 -3 41 0 39 17 -1 11 -5 48 -8 81 l-7 62 28 5 c16 3 53 9
83 13 62 7 74 -3 57 -48 -10 -26 -8 -32 13 -49 38 -31 89 -21 111 21 8 16 7
27 -7 50 -11 19 -14 33 -8 39 6 6 73 18 150 27 77 9 150 21 163 26 22 7 22 9
8 30 -35 50 -6 99 60 101 27 1 41 -5 56 -23 19 -23 19 -34 3 -74 -8 -18 -4
-19 76 -12 46 4 85 9 87 11 2 2 -2 38 -7 81 -13 88 -6 104 34 86 13 -6 32 -9
40 -6 35 14 46 74 19 112 -18 26 -45 28 -78 7 -19 -12 -25 -13 -33 -3 -8 11
-35 159 -30 164 1 1 38 7 81 13 44 6 82 14 85 16 3 3 -3 19 -13 36 -18 30 -18
32 1 58 25 33 85 41 115 14 15 -14 19 -26 14 -54 -3 -20 -4 -38 -1 -41 3 -2
65 3 137 13 73 10 148 19 167 19 33 0 33 -1 27 -35 -8 -42 5 -71 38 -79 58
-14 117 44 83 82 -10 10 -17 26 -17 34 0 16 8 18 123 34 37 5 47 10 43 23 -2
9 -7 43 -11 76 -9 75 -12 80 -41 61 -53 -35 -104 -6 -104 60 0 44 30 68 75 61
45 -7 48 0 36 88 -6 39 -7 73 -2 78 4 4 44 10 89 14 l82 6 -2 -49 c-3 -43 0
-49 24 -61 20 -10 33 -11 54 -2 47 17 58 57 27 91 -10 12 -13 22 -7 28 8 8
122 29 160 30 7 0 16 -34 22 -81 5 -44 13 -83 16 -87 4 -3 15 -1 24 6 33 24
46 25 74 9 l28 -16 0 73 c0 54 4 77 15 86 12 10 19 10 27 2 17 -17 63 -15 79
4 17 21 17 78 -1 99 -14 17 -44 17 -82 0 -26 -11 -31 14 -23 101 l7 76 81 -3
c76 -3 82 -2 81 16 -1 11 -5 28 -9 37 -10 25 36 68 73 68 15 0 38 -10 51 -21
22 -21 23 -31 6 -85 -6 -19 -2 -22 41 -28 26 -3 64 -6 85 -6 l39 0 -4 -52 c-2
-29 -4 -68 -5 -87 -1 -35 -3 -36 -68 -16 -51 16 -87 -81 -43 -120 18 -16 30
-17 80 -4 12 3 15 -10 15 -81 l0 -85 -85 0 c-91 0 -88 2 -74 -56 11 -48 -50
-82 -103 -57 -28 14 -33 37 -22 103 4 18 -2 20 -78 23 l-83 3 0 -39 c0 -51
-18 -66 -69 -58 -22 3 -42 3 -44 -1 -2 -5 0 -43 6 -85 l9 -78 57 7 c31 4 70 7
86 8 30 0 30 -1 27 -47 -3 -38 0 -48 17 -57 28 -15 63 -14 89 5 26 18 28 45 7
78 -12 19 -13 25 -3 33 7 6 79 19 161 29 81 10 153 21 160 26 9 5 7 15 -7 39
-18 30 -18 32 1 58 14 18 31 27 57 29 52 5 77 -19 74 -69 -2 -21 0 -39 5 -40
4 -1 39 2 77 5 79 8 77 4 61 114 -9 61 4 81 39 62 35 -19 70 11 70 59 0 62
-42 88 -89 55 -30 -22 -39 -11 -51 62 -18 106 -20 101 65 109 79 8 106 23 80
45 -8 7 -15 25 -15 41 0 34 32 59 77 59 45 0 65 -24 61 -74 -2 -31 1 -41 12
-40 8 0 82 9 163 19 160 20 177 17 156 -27 -23 -52 33 -92 93 -67 36 15 45 49
22 84 -11 16 -13 30 -8 35 7 7 206 40 241 40 2 0 2 73 2 163 -1 137 -3 154
-11 109 l-10 -54 -46 7 c-26 3 -65 9 -86 12 l-39 6 6 -38 c8 -48 -5 -72 -42
-80 -45 -10 -91 18 -91 55 0 16 4 32 10 35 5 3 10 14 10 25 0 20 -15 25 -104
36 l-58 7 6 61 c10 90 16 106 36 106 11 0 22 -4 25 -10 3 -5 19 -10 36 -10 24
0 32 7 46 36 16 32 16 38 2 62 -12 22 -22 27 -56 27 -23 0 -44 3 -48 7 -3 3
-1 42 5 87 l12 81 42 -7 c22 -4 61 -8 86 -8 46 0 46 0 33 47 -14 48 87 78 127
38 24 -24 25 -48 4 -79 -21 -29 -11 -37 54 -46 l52 -7 0 251 0 251 -30 0 c-19
0 -40 -9 -55 -25 -30 -29 -31 -35 -4 -69 14 -18 18 -31 12 -37 -7 -7 -135 -46
-160 -49 -1 0 -9 34 -19 76 -10 42 -24 78 -31 81 -6 3 -22 -2 -35 -11 -31 -22
-45 -20 -73 9 -52 51 -18 132 50 119 31 -6 35 -4 35 16 0 12 -7 49 -16 82 -8
33 -13 62 -10 65 3 3 39 13 80 23 85 19 97 15 89 -35 -4 -26 -1 -36 18 -49 31
-21 51 -20 83 5 30 23 34 54 10 80 -22 25 -12 45 25 52 l31 7 0 245 0 245
-2965 0 -2964 0 -6 -37 c-11 -67 -51 -138 -115 -203 -14 -14 -31 -37 -39 -52
-11 -22 -21 -28 -48 -28 -22 0 -33 5 -33 14 0 8 -5 18 -10 21 -14 9 -120 -14
-120 -26 0 -5 -16 -9 -35 -9 -25 0 -35 4 -35 16 0 8 -4 13 -9 10 -4 -3 -21 6
-37 19 -16 14 -39 28 -51 31 -16 4 -23 15 -25 37 -2 25 -9 32 -35 39 -39 10
-62 48 -70 119 l-6 49 -263 0 -264 0 0 -1544z m4454 -586 c17 -82 26 -91 60
-65 27 21 46 19 73 -7 25 -23 30 -66 12 -99 -8 -15 -19 -19 -49 -17 -22 1 -42
-1 -46 -5 -4 -3 1 -35 10 -71 9 -36 16 -72 16 -79 0 -15 -105 -47 -151 -47
-19 0 -21 4 -14 36 12 67 -52 98 -109 53 -29 -23 -34 -50 -11 -69 8 -7 15 -21
15 -31 0 -18 -17 -25 -118 -48 -49 -10 -45 -15 -66 78 -8 34 -17 66 -21 69 -3
3 -19 -2 -34 -11 -38 -22 -50 -21 -78 5 -29 27 -32 87 -4 112 14 13 28 16 55
11 42 -8 41 -10 21 80 -9 37 -14 72 -12 78 4 12 148 48 160 40 5 -3 7 -21 4
-39 -5 -27 -1 -39 15 -54 24 -22 36 -24 72 -10 41 15 52 47 31 87 -11 20 -15
37 -9 42 8 8 120 38 150 40 6 1 18 -35 28 -79z m-4080 -41 c27 -21 34 -57 15
-76 -7 -7 -9 -19 -6 -27 5 -12 22 -16 71 -16 94 0 95 -1 89 -73 -6 -92 -11
-107 -33 -107 -10 0 -22 5 -25 10 -11 18 -53 11 -69 -12 -9 -12 -16 -35 -16
-50 0 -45 56 -88 75 -58 3 6 15 10 26 10 16 0 19 -7 19 -52 0 -87 -10 -129
-29 -124 -9 3 -45 6 -81 8 l-65 3 3 -46 c3 -40 0 -49 -20 -63 -61 -43 -142 15
-108 79 19 35 5 45 -65 45 -91 0 -92 0 -88 73 7 110 16 124 62 95 50 -31 101
45 66 98 -14 22 -22 25 -63 22 l-47 -3 3 70 c5 109 -1 104 99 97 93 -5 92 -7
68 50 -9 23 36 68 68 68 13 0 36 -9 51 -21z m3226 -359 c33 -18 42 -46 26 -79
-19 -35 -13 -41 38 -41 23 0 58 -3 79 -6 l37 -7 0 -84 c0 -94 4 -90 -67 -68
-51 16 -83 -68 -44 -116 18 -22 21 -23 56 -10 25 9 40 10 44 3 3 -5 5 -44 3
-86 l-4 -76 -78 0 c-45 0 -82 -5 -85 -11 -4 -5 -1 -24 6 -41 12 -29 11 -33
-15 -54 -15 -13 -38 -24 -52 -24 -33 0 -78 45 -69 68 26 60 24 62 -63 62 -46
0 -84 5 -87 11 -4 5 -4 46 0 90 6 65 10 79 24 79 9 0 22 -5 28 -11 18 -18 58
-2 71 26 17 37 15 50 -12 82 -21 25 -26 26 -50 15 -53 -24 -56 -20 -56 79 l0
91 85 -7 86 -7 -7 50 c-6 44 -4 51 17 66 27 18 62 21 89 6z"/>
<path d="M7047 3509 c-40 -24 -44 -99 -6 -120 11 -5 35 -7 54 -3 34 6 35 7 35
55 0 38 -4 51 -22 63 -26 19 -36 19 -61 5z"/>
<path d="M7118 2538 c-2 -7 -1 -31 3 -53 6 -40 6 -39 8 13 1 51 -3 65 -11 40z"/>
<path d="M6578 2476 c-37 -6 -70 -14 -73 -18 -4 -4 0 -17 9 -30 23 -32 20 -53
-10 -77 -32 -25 -62 -27 -93 -5 -18 13 -22 24 -19 58 l3 41 -40 -2 c-22 -1
-59 -5 -82 -8 l-43 -6 7 -57 c11 -112 13 -107 -31 -105 -50 3 -76 -18 -76 -64
0 -33 28 -73 51 -73 6 0 24 8 40 17 39 23 45 13 55 -85 6 -72 7 -73 33 -68 14
3 50 8 78 11 61 8 70 16 49 47 -22 31 -20 45 9 73 30 31 77 33 106 4 17 -17
19 -28 14 -61 l-7 -40 63 7 c106 11 102 8 94 79 -3 33 -7 70 -8 81 -2 18 3 20
45 17 38 -2 49 1 57 17 17 31 13 75 -9 99 -24 26 -30 27 -56 7 -46 -35 -57
-20 -70 93 -4 36 -11 62 -18 61 -6 -1 -41 -6 -78 -13z"/>
<path d="M7035 2366 c-28 -28 -30 -43 -13 -81 14 -31 51 -42 84 -25 21 12 24
21 24 65 0 41 -3 51 -17 51 -10 1 -26 4 -35 8 -12 5 -25 0 -43 -18z"/>
<path d="M5295 1861 c-60 -10 -69 -18 -51 -47 21 -31 20 -50 -4 -74 -24 -24
-91 -27 -110 -6 -6 8 -10 32 -8 53 2 21 0 40 -5 42 -4 2 -41 0 -83 -4 l-75 -7
8 -61 c14 -118 12 -121 -44 -103 -29 9 -63 -24 -63 -62 0 -60 50 -90 97 -57
30 21 40 4 49 -83 l7 -74 56 6 c118 14 124 17 96 60 -44 66 72 125 124 63 8
-10 10 -28 5 -51 -6 -34 -5 -36 22 -36 16 0 53 3 82 7 l54 6 -7 82 c-8 91 -2
102 40 83 22 -10 29 -9 47 10 26 26 28 75 3 102 -22 24 -43 25 -74 4 -15 -11
-26 -13 -32 -7 -9 9 -28 112 -29 151 0 13 -37 14 -105 3z"/>
<path d="M7122 1180 c0 -14 2 -19 5 -12 2 6 2 18 0 25 -3 6 -5 1 -5 -13z"/>
<path d="M6930 1173 c-89 -13 -91 -14 -86 -31 3 -9 8 -47 12 -85 l6 -67 -48 2
c-42 3 -49 0 -63 -24 -20 -34 -6 -76 31 -97 24 -14 28 -14 47 3 31 28 48 14
55 -46 12 -97 16 -109 34 -104 10 2 45 8 80 11 51 6 62 10 62 25 0 11 -4 22
-10 25 -17 10 -11 54 10 75 11 11 31 20 45 20 l25 0 0 101 c0 92 -2 101 -17
94 -39 -16 -64 -17 -89 0 -24 15 -25 21 -19 61 6 43 6 44 -22 43 -15 -1 -39
-3 -53 -6z"/>
<path d="M3940 913 c-42 -16 -67 -71 -40 -88 6 -3 10 -14 10 -24 0 -15 -11
-20 -47 -25 -27 -4 -63 -10 -81 -13 l-33 -5 7 -67 c3 -36 11 -74 16 -84 9 -17
11 -17 33 -3 50 33 95 7 95 -55 0 -56 -19 -73 -70 -65 l-43 7 7 -83 c4 -45 8
-83 9 -85 2 -1 36 3 76 8 94 13 104 9 95 -36 -12 -64 49 -98 105 -59 23 17 24
23 6 96 -7 26 -7 27 63 33 38 4 75 11 81 15 8 5 10 27 5 72 -9 90 -15 98 -55
74 -30 -18 -32 -18 -58 1 -19 15 -27 30 -29 60 -4 55 18 77 68 69 20 -3 39 -4
42 -1 8 8 -18 160 -28 159 -71 -11 -153 -14 -158 -6 -3 6 -1 23 6 37 11 25 10
30 -15 51 -28 24 -40 27 -67 17z"/>
</g>
</svg>
